<svg width="840" height="193" viewBox="0 0 840 193" fill="none" xmlns="http://www.w3.org/2000/svg">
<g id="Logo_color">
<path id="Shape" fill-rule="evenodd" clip-rule="evenodd" d="M822.397 52.0151C822.502 56.6932 826.371 60.4088 831.057 60.3319C835.744 60.255 839.488 56.4145 839.439 51.7355C839.39 47.0565 835.566 43.2952 830.879 43.3165C828.595 43.3379 826.415 44.2686 824.823 45.902C823.23 47.5353 822.357 49.736 822.397 52.0151ZM824.405 51.5398C824.548 47.9789 827.531 45.1969 831.093 45.303C834.656 45.4091 837.468 48.3636 837.399 51.9267C837.329 55.4898 834.404 58.3325 830.84 58.2998C829.082 58.2836 827.405 57.5555 826.192 56.2817C824.979 55.0079 824.335 53.2971 824.405 51.5398V51.5398ZM827.965 56.4731H829.667V53.0073H831.11L832.785 56.5003H834.65L832.934 53.184C832.85 53.0047 832.745 52.8359 832.621 52.6811C833.65 52.3495 834.327 51.3672 834.268 50.289C834.298 49.5375 834.004 48.8094 833.46 48.2894C832.915 47.7694 832.174 47.5077 831.423 47.5707H827.965V56.4731ZM829.667 51.7433V48.7667H831.096C831.502 48.7393 831.898 48.894 832.177 49.1885C832.456 49.483 832.589 49.8865 832.539 50.289C832.589 50.6914 832.456 51.0949 832.177 51.3894C831.898 51.6839 831.502 51.8386 831.096 51.8112L829.667 51.7433Z" fill="#36434C"/>
<path id="Shape_2" d="M249.808 65.457C255.594 68.6918 259.76 74.9711 260.577 83.5066H246.05C245.029 76.7108 240.673 73.3537 232.954 73.3537C225.643 73.3537 220.973 76.507 220.973 81.7805C220.973 86.2385 224.118 88.3724 230.721 89.6772L239.243 91.4033C253.361 94.2439 260.277 99.8301 260.277 110.88C260.456 117.081 257.659 122.994 252.749 126.796C247.779 130.751 241.081 132.776 232.858 132.776C224.417 132.776 217.406 130.647 211.824 126.388C206.267 122.085 202.89 115.557 202.594 108.542H217.215C218.332 115.542 224.417 119.891 233.661 119.891C240.972 119.891 245.029 117.254 245.029 112.497C245.029 108.841 242.198 106.517 236.398 105.403L225.139 103.296C212.028 100.863 205.426 93.8634 205.426 83.0173C205.24 76.8572 207.9 70.9536 212.641 67.0065C217.515 62.9471 223.914 60.9174 231.837 60.9174C238.13 60.8004 244.337 62.3779 249.808 65.4842" fill="#36434C"/>
<path id="Shape_3" d="M350.24 132.545H335.02V93.8905L317.185 121.862H308.268V121.753L290.324 93.5779L290.528 132.545H275.212V61.3115H286.131L312.774 103.214L339.431 61.3115H350.24V132.545Z" fill="#36434C"/>
<path id="Shape_4" fill-rule="evenodd" clip-rule="evenodd" d="M375.209 132.545L380.764 118.817H413.084L418.652 132.545H434.703L404.058 60.8901H389.79L359.049 132.545H375.209ZM386.332 105.09L396.828 79.0077L407.42 105.09H386.332Z" fill="#36434C"/>
<path id="Shape_5" fill-rule="evenodd" clip-rule="evenodd" d="M458.801 132.545V110.445H471.053L488.629 132.545H506.9L487.39 107.931C496.508 104.386 502.448 95.5434 502.271 85.7763C502.509 78.9684 499.561 72.4374 494.293 68.1073C489.051 63.6085 482.231 61.3115 473.94 61.3115H443.512V132.545H458.801ZM487.268 85.8171C487.268 92.2051 481.291 96.5 473.422 96.5H458.801V75.1341H473.422C481.291 75.1341 487.268 79.4291 487.268 85.8171Z" fill="#36434C"/>
<path id="Shape_6" d="M546.558 75.1341V132.545H531.337V75.1341H507.526V61.3115H570.369V75.1341H546.558Z" fill="#36434C"/>
<path id="Shape_7" fill-rule="evenodd" clip-rule="evenodd" d="M647.14 70.7986C639.87 64.0707 630.817 60.7136 619.762 60.7136H591.853V132.151H619.762C630.803 132.151 639.87 128.753 647.14 121.957C654.315 115.309 658.282 105.903 658.032 96.1332C658.267 86.5085 654.29 77.2589 647.14 70.7986ZM635.977 111.804C631.67 116.053 625.815 118.365 619.762 118.206L607.196 118.247V74.5906H619.748C625.781 74.4402 631.622 76.712 635.963 80.8971C640.279 84.7776 642.698 90.3356 642.593 96.1332C642.705 102.056 640.301 107.749 635.977 111.804Z" fill="#3563AB"/>
<path id="Shape_8" d="M684.838 90.0442H718.316V103.812H684.838V118.423H722.631V132.192H669.563V60.7136H722.631V74.4819H684.838V90.0442Z" fill="#3563AB"/>
<path id="Shape_9" d="M773.29 132.613H758.968L726.961 60.7136H743.693L766.02 112.321L788.552 60.7136H805.188L773.29 132.613Z" fill="#3563AB"/>
<path id="Shape_10" d="M84.8304 55.6167L60.9237 69.2762L144.897 117.186V130.9L84.8032 165.165L24.8051 130.9V117.186L0.789551 103.473V144.628L84.7896 192.579L168.912 144.628V103.608L84.8304 55.6167Z" fill="#36434C"/>
<path id="Shape_11" d="M84.7896 0.598145L0.789551 48.6035V89.582L84.8304 137.56L108.764 123.914L24.8051 75.9905V62.3174L84.8032 28.0259L144.897 62.3174V76.0177L168.912 89.7315V48.6035L84.7896 0.598145Z" fill="#3563AB"/>
</g>
</svg>
